<svg xmlns="http://www.w3.org/2000/svg" viewBox="0 0 820 820" role="img" aria-label="QR-код FrezaPhD">
<rect width="820" height="820" fill="#eef7f3"/>
<path d="M80 80h20v20h-20z M100 80h20v20h-20z M120 80h20v20h-20z M140 80h20v20h-20z M160 80h20v20h-20z M180 80h20v20h-20z M200 80h20v20h-20z M260 80h20v20h-20z M300 80h20v20h-20z M320 80h20v20h-20z M340 80h20v20h-20z M400 80h20v20h-20z M440 80h20v20h-20z M480 80h20v20h-20z M500 80h20v20h-20z M520 80h20v20h-20z M560 80h20v20h-20z M600 80h20v20h-20z M620 80h20v20h-20z M640 80h20v20h-20z M660 80h20v20h-20z M680 80h20v20h-20z M700 80h20v20h-20z M720 80h20v20h-20z M80 100h20v20h-20z M200 100h20v20h-20z M280 100h20v20h-20z M300 100h20v20h-20z M340 100h20v20h-20z M400 100h20v20h-20z M420 100h20v20h-20z M480 100h20v20h-20z M500 100h20v20h-20z M520 100h20v20h-20z M560 100h20v20h-20z M600 100h20v20h-20z M720 100h20v20h-20z M80 120h20v20h-20z M120 120h20v20h-20z M140 120h20v20h-20z M160 120h20v20h-20z M200 120h20v20h-20z M240 120h20v20h-20z M320 120h20v20h-20z M360 120h20v20h-20z M400 120h20v20h-20z M460 120h20v20h-20z M480 120h20v20h-20z M500 120h20v20h-20z M540 120h20v20h-20z M560 120h20v20h-20z M600 120h20v20h-20z M640 120h20v20h-20z M660 120h20v20h-20z M680 120h20v20h-20z M720 120h20v20h-20z M80 140h20v20h-20z M120 140h20v20h-20z M140 140h20v20h-20z M160 140h20v20h-20z M200 140h20v20h-20z M240 140h20v20h-20z M260 140h20v20h-20z M320 140h20v20h-20z M340 140h20v20h-20z M360 140h20v20h-20z M380 140h20v20h-20z M400 140h20v20h-20z M460 140h20v20h-20z M480 140h20v20h-20z M500 140h20v20h-20z M540 140h20v20h-20z M560 140h20v20h-20z M600 140h20v20h-20z M640 140h20v20h-20z M660 140h20v20h-20z M680 140h20v20h-20z M720 140h20v20h-20z M80 160h20v20h-20z M120 160h20v20h-20z M140 160h20v20h-20z M160 160h20v20h-20z M200 160h20v20h-20z M280 160h20v20h-20z M320 160h20v20h-20z M460 160h20v20h-20z M560 160h20v20h-20z M600 160h20v20h-20z M640 160h20v20h-20z M660 160h20v20h-20z M680 160h20v20h-20z M720 160h20v20h-20z M80 180h20v20h-20z M200 180h20v20h-20z M260 180h20v20h-20z M320 180h20v20h-20z M340 180h20v20h-20z M380 180h20v20h-20z M420 180h20v20h-20z M440 180h20v20h-20z M460 180h20v20h-20z M500 180h20v20h-20z M540 180h20v20h-20z M560 180h20v20h-20z M600 180h20v20h-20z M720 180h20v20h-20z M80 200h20v20h-20z M100 200h20v20h-20z M120 200h20v20h-20z M140 200h20v20h-20z M160 200h20v20h-20z M180 200h20v20h-20z M200 200h20v20h-20z M240 200h20v20h-20z M280 200h20v20h-20z M320 200h20v20h-20z M360 200h20v20h-20z M400 200h20v20h-20z M440 200h20v20h-20z M480 200h20v20h-20z M520 200h20v20h-20z M560 200h20v20h-20z M600 200h20v20h-20z M620 200h20v20h-20z M640 200h20v20h-20z M660 200h20v20h-20z M680 200h20v20h-20z M700 200h20v20h-20z M720 200h20v20h-20z M260 220h20v20h-20z M320 220h20v20h-20z M340 220h20v20h-20z M400 220h20v20h-20z M420 220h20v20h-20z M440 220h20v20h-20z M460 220h20v20h-20z M480 220h20v20h-20z M520 220h20v20h-20z M140 240h20v20h-20z M160 240h20v20h-20z M200 240h20v20h-20z M220 240h20v20h-20z M260 240h20v20h-20z M280 240h20v20h-20z M300 240h20v20h-20z M320 240h20v20h-20z M340 240h20v20h-20z M380 240h20v20h-20z M400 240h20v20h-20z M460 240h20v20h-20z M480 240h20v20h-20z M500 240h20v20h-20z M560 240h20v20h-20z M660 240h20v20h-20z M680 240h20v20h-20z M80 260h20v20h-20z M100 260h20v20h-20z M120 260h20v20h-20z M220 260h20v20h-20z M260 260h20v20h-20z M280 260h20v20h-20z M320 260h20v20h-20z M360 260h20v20h-20z M400 260h20v20h-20z M440 260h20v20h-20z M460 260h20v20h-20z M500 260h20v20h-20z M520 260h20v20h-20z M540 260h20v20h-20z M560 260h20v20h-20z M580 260h20v20h-20z M620 260h20v20h-20z M640 260h20v20h-20z M700 260h20v20h-20z M140 280h20v20h-20z M160 280h20v20h-20z M180 280h20v20h-20z M200 280h20v20h-20z M240 280h20v20h-20z M260 280h20v20h-20z M340 280h20v20h-20z M360 280h20v20h-20z M380 280h20v20h-20z M520 280h20v20h-20z M540 280h20v20h-20z M580 280h20v20h-20z M600 280h20v20h-20z M620 280h20v20h-20z M660 280h20v20h-20z M680 280h20v20h-20z M700 280h20v20h-20z M720 280h20v20h-20z M80 300h20v20h-20z M100 300h20v20h-20z M140 300h20v20h-20z M180 300h20v20h-20z M220 300h20v20h-20z M280 300h20v20h-20z M320 300h20v20h-20z M380 300h20v20h-20z M440 300h20v20h-20z M480 300h20v20h-20z M580 300h20v20h-20z M620 300h20v20h-20z M640 300h20v20h-20z M680 300h20v20h-20z M700 300h20v20h-20z M720 300h20v20h-20z M160 320h20v20h-20z M180 320h20v20h-20z M200 320h20v20h-20z M220 320h20v20h-20z M240 320h20v20h-20z M260 320h20v20h-20z M300 320h20v20h-20z M380 320h20v20h-20z M400 320h20v20h-20z M460 320h20v20h-20z M480 320h20v20h-20z M500 320h20v20h-20z M520 320h20v20h-20z M560 320h20v20h-20z M580 320h20v20h-20z M600 320h20v20h-20z M640 320h20v20h-20z M720 320h20v20h-20z M80 340h20v20h-20z M120 340h20v20h-20z M160 340h20v20h-20z M180 340h20v20h-20z M220 340h20v20h-20z M240 340h20v20h-20z M300 340h20v20h-20z M340 340h20v20h-20z M360 340h20v20h-20z M380 340h20v20h-20z M440 340h20v20h-20z M460 340h20v20h-20z M500 340h20v20h-20z M540 340h20v20h-20z M620 340h20v20h-20z M660 340h20v20h-20z M680 340h20v20h-20z M700 340h20v20h-20z M100 360h20v20h-20z M120 360h20v20h-20z M200 360h20v20h-20z M220 360h20v20h-20z M240 360h20v20h-20z M260 360h20v20h-20z M280 360h20v20h-20z M300 360h20v20h-20z M360 360h20v20h-20z M400 360h20v20h-20z M440 360h20v20h-20z M460 360h20v20h-20z M560 360h20v20h-20z M600 360h20v20h-20z M640 360h20v20h-20z M660 360h20v20h-20z M680 360h20v20h-20z M80 380h20v20h-20z M100 380h20v20h-20z M140 380h20v20h-20z M160 380h20v20h-20z M180 380h20v20h-20z M240 380h20v20h-20z M400 380h20v20h-20z M420 380h20v20h-20z M440 380h20v20h-20z M460 380h20v20h-20z M540 380h20v20h-20z M640 380h20v20h-20z M660 380h20v20h-20z M680 380h20v20h-20z M700 380h20v20h-20z M720 380h20v20h-20z M100 400h20v20h-20z M120 400h20v20h-20z M140 400h20v20h-20z M160 400h20v20h-20z M180 400h20v20h-20z M200 400h20v20h-20z M220 400h20v20h-20z M280 400h20v20h-20z M300 400h20v20h-20z M340 400h20v20h-20z M380 400h20v20h-20z M400 400h20v20h-20z M420 400h20v20h-20z M440 400h20v20h-20z M460 400h20v20h-20z M480 400h20v20h-20z M580 400h20v20h-20z M600 400h20v20h-20z M620 400h20v20h-20z M640 400h20v20h-20z M720 400h20v20h-20z M80 420h20v20h-20z M120 420h20v20h-20z M140 420h20v20h-20z M260 420h20v20h-20z M280 420h20v20h-20z M300 420h20v20h-20z M340 420h20v20h-20z M360 420h20v20h-20z M380 420h20v20h-20z M420 420h20v20h-20z M440 420h20v20h-20z M460 420h20v20h-20z M500 420h20v20h-20z M520 420h20v20h-20z M560 420h20v20h-20z M600 420h20v20h-20z M640 420h20v20h-20z M660 420h20v20h-20z M720 420h20v20h-20z M100 440h20v20h-20z M160 440h20v20h-20z M180 440h20v20h-20z M200 440h20v20h-20z M220 440h20v20h-20z M280 440h20v20h-20z M300 440h20v20h-20z M320 440h20v20h-20z M340 440h20v20h-20z M380 440h20v20h-20z M400 440h20v20h-20z M440 440h20v20h-20z M460 440h20v20h-20z M500 440h20v20h-20z M520 440h20v20h-20z M540 440h20v20h-20z M580 440h20v20h-20z M600 440h20v20h-20z M620 440h20v20h-20z M660 440h20v20h-20z M680 440h20v20h-20z M720 440h20v20h-20z M80 460h20v20h-20z M120 460h20v20h-20z M140 460h20v20h-20z M160 460h20v20h-20z M220 460h20v20h-20z M240 460h20v20h-20z M280 460h20v20h-20z M320 460h20v20h-20z M360 460h20v20h-20z M380 460h20v20h-20z M520 460h20v20h-20z M540 460h20v20h-20z M560 460h20v20h-20z M580 460h20v20h-20z M600 460h20v20h-20z M660 460h20v20h-20z M680 460h20v20h-20z M700 460h20v20h-20z M80 480h20v20h-20z M140 480h20v20h-20z M160 480h20v20h-20z M200 480h20v20h-20z M220 480h20v20h-20z M300 480h20v20h-20z M320 480h20v20h-20z M340 480h20v20h-20z M380 480h20v20h-20z M440 480h20v20h-20z M480 480h20v20h-20z M560 480h20v20h-20z M620 480h20v20h-20z M660 480h20v20h-20z M700 480h20v20h-20z M80 500h20v20h-20z M140 500h20v20h-20z M160 500h20v20h-20z M180 500h20v20h-20z M240 500h20v20h-20z M260 500h20v20h-20z M280 500h20v20h-20z M320 500h20v20h-20z M360 500h20v20h-20z M420 500h20v20h-20z M480 500h20v20h-20z M620 500h20v20h-20z M640 500h20v20h-20z M80 520h20v20h-20z M120 520h20v20h-20z M200 520h20v20h-20z M280 520h20v20h-20z M300 520h20v20h-20z M420 520h20v20h-20z M440 520h20v20h-20z M480 520h20v20h-20z M520 520h20v20h-20z M540 520h20v20h-20z M560 520h20v20h-20z M600 520h20v20h-20z M620 520h20v20h-20z M680 520h20v20h-20z M700 520h20v20h-20z M720 520h20v20h-20z M80 540h20v20h-20z M120 540h20v20h-20z M180 540h20v20h-20z M220 540h20v20h-20z M240 540h20v20h-20z M260 540h20v20h-20z M340 540h20v20h-20z M360 540h20v20h-20z M400 540h20v20h-20z M440 540h20v20h-20z M480 540h20v20h-20z M520 540h20v20h-20z M540 540h20v20h-20z M560 540h20v20h-20z M620 540h20v20h-20z M680 540h20v20h-20z M80 560h20v20h-20z M100 560h20v20h-20z M120 560h20v20h-20z M140 560h20v20h-20z M160 560h20v20h-20z M180 560h20v20h-20z M200 560h20v20h-20z M220 560h20v20h-20z M320 560h20v20h-20z M340 560h20v20h-20z M360 560h20v20h-20z M380 560h20v20h-20z M420 560h20v20h-20z M560 560h20v20h-20z M580 560h20v20h-20z M600 560h20v20h-20z M620 560h20v20h-20z M640 560h20v20h-20z M660 560h20v20h-20z M720 560h20v20h-20z M240 580h20v20h-20z M260 580h20v20h-20z M280 580h20v20h-20z M300 580h20v20h-20z M320 580h20v20h-20z M340 580h20v20h-20z M420 580h20v20h-20z M460 580h20v20h-20z M500 580h20v20h-20z M520 580h20v20h-20z M560 580h20v20h-20z M640 580h20v20h-20z M660 580h20v20h-20z M680 580h20v20h-20z M700 580h20v20h-20z M80 600h20v20h-20z M100 600h20v20h-20z M120 600h20v20h-20z M140 600h20v20h-20z M160 600h20v20h-20z M180 600h20v20h-20z M200 600h20v20h-20z M240 600h20v20h-20z M260 600h20v20h-20z M280 600h20v20h-20z M320 600h20v20h-20z M340 600h20v20h-20z M360 600h20v20h-20z M420 600h20v20h-20z M440 600h20v20h-20z M460 600h20v20h-20z M540 600h20v20h-20z M560 600h20v20h-20z M600 600h20v20h-20z M640 600h20v20h-20z M660 600h20v20h-20z M680 600h20v20h-20z M80 620h20v20h-20z M200 620h20v20h-20z M260 620h20v20h-20z M280 620h20v20h-20z M380 620h20v20h-20z M420 620h20v20h-20z M460 620h20v20h-20z M480 620h20v20h-20z M500 620h20v20h-20z M520 620h20v20h-20z M540 620h20v20h-20z M560 620h20v20h-20z M640 620h20v20h-20z M660 620h20v20h-20z M680 620h20v20h-20z M700 620h20v20h-20z M80 640h20v20h-20z M120 640h20v20h-20z M140 640h20v20h-20z M160 640h20v20h-20z M200 640h20v20h-20z M240 640h20v20h-20z M280 640h20v20h-20z M320 640h20v20h-20z M340 640h20v20h-20z M380 640h20v20h-20z M420 640h20v20h-20z M460 640h20v20h-20z M480 640h20v20h-20z M500 640h20v20h-20z M520 640h20v20h-20z M540 640h20v20h-20z M560 640h20v20h-20z M580 640h20v20h-20z M600 640h20v20h-20z M620 640h20v20h-20z M640 640h20v20h-20z M660 640h20v20h-20z M700 640h20v20h-20z M80 660h20v20h-20z M120 660h20v20h-20z M140 660h20v20h-20z M160 660h20v20h-20z M200 660h20v20h-20z M240 660h20v20h-20z M280 660h20v20h-20z M300 660h20v20h-20z M320 660h20v20h-20z M380 660h20v20h-20z M420 660h20v20h-20z M440 660h20v20h-20z M460 660h20v20h-20z M480 660h20v20h-20z M520 660h20v20h-20z M560 660h20v20h-20z M580 660h20v20h-20z M620 660h20v20h-20z M660 660h20v20h-20z M720 660h20v20h-20z M80 680h20v20h-20z M120 680h20v20h-20z M140 680h20v20h-20z M160 680h20v20h-20z M200 680h20v20h-20z M260 680h20v20h-20z M300 680h20v20h-20z M340 680h20v20h-20z M380 680h20v20h-20z M400 680h20v20h-20z M420 680h20v20h-20z M440 680h20v20h-20z M460 680h20v20h-20z M480 680h20v20h-20z M500 680h20v20h-20z M540 680h20v20h-20z M640 680h20v20h-20z M660 680h20v20h-20z M700 680h20v20h-20z M720 680h20v20h-20z M80 700h20v20h-20z M200 700h20v20h-20z M280 700h20v20h-20z M380 700h20v20h-20z M420 700h20v20h-20z M440 700h20v20h-20z M500 700h20v20h-20z M600 700h20v20h-20z M660 700h20v20h-20z M680 700h20v20h-20z M700 700h20v20h-20z M720 700h20v20h-20z M80 720h20v20h-20z M100 720h20v20h-20z M120 720h20v20h-20z M140 720h20v20h-20z M160 720h20v20h-20z M180 720h20v20h-20z M200 720h20v20h-20z M260 720h20v20h-20z M280 720h20v20h-20z M300 720h20v20h-20z M340 720h20v20h-20z M360 720h20v20h-20z M400 720h20v20h-20z M420 720h20v20h-20z M460 720h20v20h-20z M480 720h20v20h-20z M520 720h20v20h-20z M560 720h20v20h-20z M580 720h20v20h-20z M640 720h20v20h-20z" fill="#071f17"/>
<rect x="340.0" y="340.0" width="140.0" height="140.0" rx="24" fill="#071f17" stroke="#d7b567" stroke-width="6"/>
<g transform="translate(410.0 410.0) rotate(-10)">
  <rect x="-34" y="-55" width="68" height="110" rx="13" fill="#173c30" stroke="#32d68b" stroke-width="4"/>
  <path d="M-27-38L23-52 28-38-22-24zM-27-7L23-21 28-7-22 7zM-27 24L23 10 28 24-22 38z" fill="#eef7f3"/>
  <ellipse cx="0" cy="-55" rx="34" ry="11" fill="#234f40" stroke="#32d68b" stroke-width="4"/>
  <ellipse cx="0" cy="-55" rx="11" ry="4" fill="#071f17"/>
</g></svg>